<svg xmlns="http://www.w3.org/2000/svg" width="30" height="20" viewBox="0 0 30 20">
    <path fill="#FFF" d="M25.606 0c.26-.01.496.156.572.406l3.767 12.515c-.008.055-.008.11 0 .166v5.528c0 .315-.256.571-.572.571H.55C.242 19.174 0 18.922 0 18.615v-5.551c.008-.055.008-.111 0-.166L3.722.406c.075-.25.31-.417.571-.405zM8.833 13.659H1.12v4.385h27.675l.006-4.385h-7.684l-.571 2.344c-.063.264-.301.448-.572.44H9.976c-.27.008-.51-.176-.572-.44l-.571-2.344zm11.085 0h-9.913l.383 1.635h9.147l.383-1.635zm5.288-12.514H4.716l-3.395 11.37h27.286l-3.401-11.37zM14.96 2.173c5.574 0 9.936 2.04 9.936 4.654 0 2.612-4.368 4.659-9.936 4.659S5.025 9.445 5.025 6.832c0-2.612 4.362-4.66 9.936-4.66zm0 1.143c-5.18 0-8.792 1.847-8.792 3.51 0 1.664 3.613 3.516 8.792 3.516 5.18 0 8.793-1.846 8.793-3.51 0-1.663-3.613-3.516-8.793-3.516z"/>
</svg>
