<svg xmlns="http://www.w3.org/2000/svg" width="16" height="29" viewBox="0 0 16 29">
    <path fill="#FFF" d="M10.89.597C6.796.704 4.139 3.325 4.139 7.552l-.001 2.559H0v6.323h4.138v11.86h6.65v-11.86h4.02l.846-6.323h-4.866v-2.1c0-1.08.217-1.375 1.363-1.4L15.7 6.61V.874l-.744-.093-.344-.038c-.83-.08-2.183-.15-3.459-.15l-.263.004zm.545 1.698c.726.005 1.464.033 2.086.07l.479.032v2.512l-1.687.001c-2.282 0-3.225 1.08-3.225 3.1v3.801h4.623l-.391 2.923H9.088v11.859h-3.25V14.734H1.7v-2.923h4.139V7.552c0-3.359 1.993-5.259 5.314-5.259l.282.002z"/>
</svg>
