<svg xmlns="http://www.w3.org/2000/svg" width="31" height="30" viewBox="0 0 31 30">
    <path fill="#FFF" d="M26.436 0c2.423 0 4.395 1.971 4.395 4.395v21.21c0 2.424-1.972 4.395-4.395 4.395H5.226C2.801 30 .83 28.029.83 25.605V4.395C.83 1.97 2.802 0 5.225 0zm0 1.758H5.226c-1.455 0-2.637 1.183-2.637 2.637v21.21c0 1.454 1.182 2.637 2.636 2.637h21.211c1.454 0 2.637-1.183 2.637-2.637V4.395c0-1.454-1.183-2.637-2.637-2.637zM15.831 7.09c4.361 0 7.91 3.548 7.91 7.91s-3.549 7.91-7.91 7.91c-4.362 0-7.91-3.548-7.91-7.91s3.548-7.91 7.91-7.91zm0 1.758c-3.393 0-6.153 2.76-6.153 6.152 0 3.392 2.76 6.152 6.153 6.152 3.392 0 6.152-2.76 6.152-6.152 0-3.392-2.76-6.152-6.152-6.152zm8.789-5.274c1.454 0 2.637 1.183 2.637 2.637s-1.183 2.637-2.637 2.637-2.637-1.183-2.637-2.637 1.183-2.637 2.637-2.637zm0 1.758c-.485 0-.88.394-.88.879 0 .484.395.879.88.879.484 0 .879-.395.879-.88 0-.484-.395-.878-.88-.878z"/>
</svg>
