<svg xmlns="http://www.w3.org/2000/svg" width="168" height="38" viewBox="0 0 168 38">
    <g fill="none" fill-rule="evenodd">
        <path fill="#F28500" d="M11.804 23.027C5.58 22.874.574 17.777.574 11.512.575 5.247 5.58.152 11.805 0v23.027z"/>
        <path fill="#B1D628" d="M15.01 14.497c6.362 0 11.518 5.156 11.518 11.518 0 6.362-5.156 11.515-11.518 11.515h-.022V14.497h.022z"/>
        <path fill="#1F1F1F" d="M5.902 37.532c3.25 0 5.901-2.652 5.901-5.902 0-3.254-2.65-5.905-5.901-5.905C2.652 25.725 0 28.376 0 31.63c0 3.25 2.651 5.902 5.902 5.902M20.625 11.807c3.25 0 5.901-2.651 5.901-5.905 0-3.25-2.65-5.902-5.901-5.902-3.25 0-5.902 2.651-5.902 5.902 0 3.254 2.651 5.905 5.902 5.905"/>
        <path fill="#1F1F1F" fill-rule="nonzero" d="M42.63 29.53c2.49 0 4.375-.483 5.654-1.447 1.28-.965 1.919-2.3 1.919-4.005 0-1.369-.455-2.485-1.363-3.35-.91-.863-2.44-1.542-4.594-2.035l-1.044-.236c-.628-.134-1.054-.28-1.279-.437-.224-.157-.336-.36-.336-.606 0-.36.202-.623.606-.791.403-.168.976-.252 1.716-.252.359 0 .757.033 1.195.1.437.068.87.152 1.296.253.426.1.818.213 1.177.336.36.124.629.242.808.354.292-.247.533-.555.724-.926.19-.37.286-.813.286-1.33 0-.538-.157-1.003-.471-1.396-.314-.392-.74-.712-1.28-.959-.538-.247-1.172-.432-1.9-.555-.73-.124-1.51-.185-2.34-.185-1.1 0-2.103.123-3.012.37-.909.247-1.688.594-2.339 1.043-.65.449-1.156 1.01-1.515 1.683S36 16.584 36 17.414c0 1.526.477 2.698 1.43 3.517.954.819 2.407 1.419 4.359 1.8l1.01.202c.628.113 1.076.258 1.346.438.269.18.403.426.403.74 0 .337-.185.606-.555.808-.37.202-.903.303-1.598.303-1.1 0-2.07-.14-2.912-.42-.841-.281-1.587-.6-2.238-.96-.314.247-.583.555-.807.926-.225.37-.337.824-.337 1.363 0 .583.163 1.088.488 1.514.325.426.774.78 1.346 1.06.572.28 1.262.488 2.07.623.808.135 1.683.202 2.625.202zm18.769-.034c1.323 0 2.524-.19 3.6-.572 1.078-.381 2.003-.942 2.777-1.683.774-.74 1.374-1.654 1.8-2.743.427-1.088.64-2.327.64-3.719 0-1.3-.213-2.49-.64-3.567-.426-1.077-1.026-1.991-1.8-2.743-.774-.752-1.7-1.335-2.776-1.75-1.077-.415-2.278-.623-3.601-.623-1.324 0-2.525.202-3.602.606-1.077.404-2.002.982-2.776 1.733-.774.752-1.374 1.666-1.8 2.743-.427 1.077-.64 2.278-.64 3.601 0 1.347.213 2.558.64 3.635.426 1.077 1.026 1.991 1.8 2.743.774.752 1.7 1.33 2.776 1.733 1.077.404 2.278.606 3.602.606zm.033-4.476c-.942 0-1.677-.365-2.204-1.094-.528-.729-.791-1.778-.791-3.147 0-1.346.258-2.384.774-3.113.516-.729 1.245-1.094 2.188-1.094.942 0 1.671.365 2.187 1.094.516.73.774 1.767.774 3.113 0 1.347-.252 2.39-.757 3.13-.505.74-1.228 1.111-2.17 1.111zm14.898 4.207c.516 0 1.015-.034 1.498-.101.482-.067.836-.135 1.06-.202V17.448c.292-.135.645-.253 1.06-.354.415-.1.858-.196 1.33-.286.47-.09.953-.157 1.447-.202.493-.045.976-.067 1.447-.067.135-.247.247-.522.336-.825.09-.303.135-.611.135-.925 0-.943-.314-1.621-.942-2.036-.629-.415-1.481-.623-2.558-.623-.65 0-1.301.05-1.952.151-.65.101-1.279.242-1.885.421-.606.18-1.172.387-1.7.623-.527.235-.97.499-1.329.79-.359.292-.634.623-.824.993-.191.37-.286.814-.286 1.33v10.096c0 .561.072 1.016.218 1.364.146.347.354.622.623.824.27.202.6.337.993.404.392.067.836.1 1.33.1zm13.316 0c.516 0 1.016-.034 1.498-.101s.836-.135 1.06-.202V17.448c.292-.135.645-.253 1.06-.354.415-.1.859-.196 1.33-.286.47-.09.953-.157 1.447-.202.494-.045.976-.067 1.447-.067.135-.247.247-.522.337-.825.09-.303.134-.611.134-.925 0-.943-.314-1.621-.942-2.036-.628-.415-1.48-.623-2.558-.623-.65 0-1.301.05-1.952.151-.65.101-1.279.242-1.885.421-.605.18-1.172.387-1.7.623-.526.235-.97.499-1.329.79-.359.292-.633.623-.824.993-.19.37-.286.814-.286 1.33v10.096c0 .561.073 1.016.219 1.364.145.347.353.622.622.824.27.202.6.337.993.404s.836.1 1.33.1zm18.197.27c.785 0 1.626-.068 2.524-.203.897-.134 1.705-.392 2.423-.774.942-.493 1.414-1.245 1.414-2.255 0-.448-.124-.875-.37-1.279-.247-.404-.55-.718-.91-.942-.515.314-1.183.589-2.002.825-.819.235-1.688.353-2.608.353-.987 0-1.862-.185-2.625-.555-.763-.37-1.268-.926-1.515-1.666l8.313-1.246c.763-.112 1.358-.37 1.784-.774.426-.404.64-.987.64-1.75 0-1.032-.197-1.985-.59-2.86-.392-.875-.942-1.627-1.649-2.255-.707-.629-1.548-1.122-2.524-1.481-.976-.36-2.059-.539-3.248-.539-1.054 0-2.086.163-3.096.488-1.01.326-1.907.83-2.692 1.515-.786.684-1.42 1.56-1.902 2.625-.482 1.066-.724 2.339-.724 3.82 0 1.503.242 2.816.724 3.938.482 1.121 1.144 2.052 1.986 2.793.841.74 1.828 1.296 2.961 1.666 1.133.37 2.362.555 3.686.555zM103.77 19.23c.023-.359.096-.712.22-1.06.122-.348.308-.662.554-.942.247-.28.567-.51.96-.69.392-.18.858-.27 1.396-.27.83 0 1.459.225 1.885.674.426.448.673.897.74 1.346l-5.755.942zm27.586 9.996c.517 0 1.016-.034 1.498-.101.483-.067.836-.135 1.06-.202V18.39c0-1.975-.684-3.517-2.053-4.628-1.368-1.11-3.32-1.666-5.856-1.666-1.413 0-2.698.169-3.853.505-1.156.337-2.115.774-2.878 1.313-.449.314-.802.662-1.06 1.043-.258.381-.387.875-.387 1.48v10.097c0 .561.073 1.016.219 1.364.146.347.353.622.622.824.27.202.6.337.993.404s.836.1 1.33.1c.516 0 1.015-.033 1.497-.1.483-.067.836-.135 1.06-.202V17.246c.315-.225.69-.393 1.128-.505.437-.112.88-.169 1.33-.169.672 0 1.205.163 1.598.488.393.326.589.836.589 1.532v7.942c0 .561.073 1.016.219 1.364.145.347.353.622.622.824.27.202.6.337.993.404s.836.1 1.33.1zm12.475.236c1.616 0 2.743-.27 3.383-.808.64-.539.959-1.234.959-2.087 0-.426-.073-.79-.219-1.094-.146-.303-.32-.577-.522-.824-.269.09-.583.162-.942.219-.359.056-.707.084-1.043.084-.673 0-1.195-.124-1.565-.37-.37-.247-.556-.662-.556-1.246v-5.082h3.063c.583 0 1.049-.174 1.397-.521.348-.348.521-.915.521-1.7 0-.449-.061-.858-.185-1.228-.123-.37-.252-.68-.387-.926h-4.409v-2.154c0-1.122-.274-1.857-.824-2.204-.55-.348-1.318-.522-2.306-.522-.516 0-1.004.04-1.464.118-.46.078-.813.151-1.06.219V23.74c0 2.02.533 3.478 1.599 4.375 1.066.898 2.586 1.347 4.56 1.347zm15.1.033c1.324 0 2.524-.19 3.601-.572 1.077-.381 2.003-.942 2.777-1.683.774-.74 1.374-1.654 1.8-2.743.427-1.088.64-2.327.64-3.719 0-1.3-.213-2.49-.64-3.567-.426-1.077-1.026-1.991-1.8-2.743-.774-.752-1.7-1.335-2.777-1.75-1.077-.415-2.277-.623-3.6-.623-1.325 0-2.525.202-3.602.606-1.077.404-2.002.982-2.776 1.733-.775.752-1.375 1.666-1.801 2.743-.426 1.077-.64 2.278-.64 3.601 0 1.347.214 2.558.64 3.635.426 1.077 1.026 1.991 1.8 2.743.775.752 1.7 1.33 2.777 1.733 1.077.404 2.277.606 3.601.606zm.034-4.476c-.942 0-1.677-.365-2.205-1.094-.527-.729-.79-1.778-.79-3.147 0-1.346.258-2.384.774-3.113.516-.729 1.245-1.094 2.187-1.094.943 0 1.672.365 2.188 1.094.516.73.774 1.767.774 3.113 0 1.347-.253 2.39-.757 3.13-.505.74-1.229 1.111-2.171 1.111z"/>
    </g>
</svg>
