<svg xmlns="http://www.w3.org/2000/svg" width="133" height="89" viewBox="0 0 133 89">
    <g fill="none" fill-rule="evenodd">
        <g>
            <path fill="#F28500" d="M11.23 23.027C5.004 22.874 0 17.777 0 11.512 0 5.247 5.004.152 11.23 0v23.027z" transform="translate(52.353)"/>
            <path fill="#B1D628" d="M15.023 15c6.362 0 11.518 5.156 11.518 11.518 0 6.362-5.156 11.515-11.518 11.515H15V15h.023z" transform="translate(52.353)"/>
            <path fill="#FEFEFE" d="M5.902 37.807c3.25 0 5.901-2.651 5.901-5.902 0-3.254-2.65-5.905-5.901-5.905C2.652 26 0 28.651 0 31.905c0 3.25 2.651 5.902 5.902 5.902M20.902 11.807c3.25 0 5.901-2.651 5.901-5.905 0-3.25-2.65-5.902-5.901-5.902C17.652 0 15 2.651 15 5.902c0 3.254 2.651 5.905 5.902 5.905" transform="translate(52.353)"/>
        </g>
        <path fill="#FEFEFE" fill-rule="nonzero" d="M7.228 70.875c2.49 0 4.376-.483 5.655-1.448 1.278-.964 1.918-2.3 1.918-4.005 0-1.368-.454-2.484-1.363-3.348-.909-.864-2.44-1.543-4.594-2.036L7.8 59.802c-.629-.135-1.055-.28-1.28-.438-.224-.157-.336-.358-.336-.605 0-.36.202-.623.606-.791.404-.168.976-.253 1.716-.253.36 0 .758.034 1.195.101.438.068.87.152 1.296.253.426.1.819.213 1.178.336.359.124.628.242.808.354.291-.247.532-.556.723-.926.19-.37.286-.813.286-1.33 0-.538-.157-1.003-.471-1.396-.314-.393-.74-.712-1.279-.96-.538-.246-1.172-.431-1.901-.554-.73-.124-1.51-.186-2.34-.186-1.099 0-2.103.124-3.012.37-.908.247-1.688.595-2.339 1.044-.65.449-1.155 1.01-1.514 1.683-.36.673-.539 1.425-.539 2.255 0 1.525.477 2.698 1.43 3.517.954.819 2.407 1.419 4.36 1.8l1.009.202c.628.112 1.077.258 1.346.438.27.18.404.426.404.74 0 .337-.185.606-.556.808-.37.202-.903.303-1.598.303-1.1 0-2.07-.14-2.911-.42-.842-.281-1.588-.601-2.238-.96-.315.247-.584.555-.808.925-.225.37-.337.825-.337 1.363 0 .584.163 1.089.488 1.515.326.426.774.78 1.347 1.06.572.28 1.262.488 2.07.623.807.134 1.682.202 2.624.202zm18.769-.034c1.324 0 2.524-.19 3.601-.572 1.077-.382 2.002-.942 2.777-1.683.774-.74 1.374-1.655 1.8-2.743.426-1.088.64-2.328.64-3.719 0-1.301-.214-2.49-.64-3.567-.426-1.077-1.026-1.992-1.8-2.743-.775-.752-1.7-1.335-2.777-1.75-1.077-.415-2.277-.623-3.601-.623-1.324 0-2.524.202-3.601.606-1.077.404-2.003.982-2.777 1.733-.774.752-1.374 1.666-1.8 2.743-.427 1.077-.64 2.277-.64 3.601 0 1.346.213 2.558.64 3.635.426 1.077 1.026 1.991 1.8 2.743.774.752 1.7 1.33 2.777 1.733 1.077.404 2.277.606 3.6.606zm.033-4.476c-.942 0-1.677-.365-2.204-1.094-.527-.73-.79-1.778-.79-3.147 0-1.346.257-2.384.773-3.113.516-.73 1.245-1.094 2.188-1.094.942 0 1.671.365 2.187 1.094.516.73.775 1.767.775 3.113s-.253 2.39-.758 3.13c-.505.74-1.228 1.11-2.17 1.11zm14.899 4.207c.516 0 1.015-.034 1.497-.101.483-.068.836-.135 1.06-.202V58.792c.292-.134.645-.252 1.06-.353.416-.101.859-.196 1.33-.286.471-.09.953-.157 1.447-.202.494-.045.976-.067 1.447-.067.135-.247.247-.522.337-.825.09-.303.134-.611.134-.925 0-.943-.314-1.621-.942-2.037-.628-.415-1.48-.622-2.558-.622-.65 0-1.301.05-1.952.151-.65.101-1.279.241-1.884.42-.606.18-1.173.388-1.7.624-.527.235-.97.499-1.33.79-.358.292-.633.623-.824.993-.19.37-.286.814-.286 1.33v10.096c0 .561.073 1.016.219 1.363.145.348.353.623.622.825.27.202.6.336.993.404.393.067.836.1 1.33.1zm13.316 0c.516 0 1.015-.034 1.497-.101.483-.068.836-.135 1.06-.202V58.792c.292-.134.646-.252 1.06-.353.416-.101.859-.196 1.33-.286.471-.09.954-.157 1.447-.202.494-.045.976-.067 1.447-.067.135-.247.247-.522.337-.825.09-.303.135-.611.135-.925 0-.943-.315-1.621-.943-2.037-.628-.415-1.48-.622-2.558-.622-.65 0-1.3.05-1.952.151-.65.101-1.278.241-1.884.42-.606.18-1.173.388-1.7.624-.527.235-.97.499-1.33.79-.358.292-.633.623-.824.993-.19.37-.286.814-.286 1.33v10.096c0 .561.073 1.016.219 1.363.146.348.353.623.622.825.27.202.6.336.993.404.393.067.836.1 1.33.1zm18.196.269c.785 0 1.627-.067 2.524-.202.898-.135 1.705-.393 2.423-.774.943-.494 1.414-1.245 1.414-2.255 0-.449-.124-.875-.37-1.279-.247-.404-.55-.718-.91-.942-.515.314-1.183.589-2.002.824-.819.236-1.688.354-2.608.354-.987 0-1.862-.185-2.625-.556-.763-.37-1.268-.925-1.514-1.665l8.312-1.246c.763-.112 1.358-.37 1.784-.774.426-.404.64-.987.64-1.75 0-1.032-.197-1.986-.59-2.86-.392-.876-.942-1.627-1.648-2.256-.707-.628-1.549-1.121-2.525-1.48-.976-.36-2.058-.539-3.247-.539-1.055 0-2.087.163-3.097.488-1.01.325-1.907.83-2.692 1.515-.785.684-1.42 1.559-1.902 2.625s-.723 2.339-.723 3.82c0 1.503.24 2.815.723 3.937.483 1.122 1.145 2.053 1.986 2.794.841.74 1.829 1.295 2.962 1.666 1.133.37 2.361.555 3.685.555zm-4.072-10.265c.022-.359.095-.712.218-1.06.124-.348.309-.662.556-.942.247-.28.566-.51.959-.69.393-.18.858-.27 1.397-.27.83 0 1.458.225 1.884.674.427.448.673.897.74 1.346l-5.754.942zm27.586 9.996c.516 0 1.015-.034 1.497-.101.483-.068.836-.135 1.06-.202V59.735c0-1.975-.684-3.517-2.052-4.628-1.369-1.11-3.321-1.666-5.856-1.666-1.414 0-2.698.168-3.854.505-1.155.337-2.115.774-2.878 1.313-.448.314-.802.661-1.06 1.043-.258.381-.387.875-.387 1.48V67.88c0 .561.073 1.016.219 1.363.146.348.353.623.623.825.269.202.6.336.993.404.392.067.835.1 1.329.1.516 0 1.015-.033 1.498-.1.482-.068.835-.135 1.06-.202V58.59c.314-.224.69-.392 1.127-.504.438-.113.88-.169 1.33-.169.673 0 1.206.163 1.598.488.393.326.59.836.59 1.532v7.942c0 .561.072 1.016.218 1.363.146.348.353.623.623.825.269.202.6.336.992.404.393.067.836.1 1.33.1zm12.475.235c1.615 0 2.743-.269 3.382-.807.64-.539.96-1.234.96-2.087 0-.426-.074-.79-.22-1.094-.145-.303-.32-.578-.521-.824-.27.09-.584.162-.943.218-.359.056-.706.085-1.043.085-.673 0-1.195-.124-1.565-.37-.37-.247-.555-.663-.555-1.246V59.6h3.062c.584 0 1.05-.174 1.397-.522.348-.347.522-.914.522-1.7 0-.448-.062-.857-.185-1.228-.124-.37-.253-.678-.387-.925h-4.41V53.07c0-1.122-.274-1.857-.824-2.205-.55-.347-1.318-.521-2.305-.521-.516 0-1.004.04-1.464.118-.46.078-.814.151-1.06.218v14.405c0 2.02.533 3.478 1.598 4.375 1.066.898 2.586 1.346 4.56 1.346zm15.1.034c1.323 0 2.524-.19 3.6-.572 1.078-.382 2.003-.942 2.777-1.683.774-.74 1.375-1.655 1.8-2.743.427-1.088.64-2.328.64-3.719 0-1.301-.213-2.49-.64-3.567-.425-1.077-1.026-1.992-1.8-2.743-.774-.752-1.7-1.335-2.776-1.75-1.077-.415-2.278-.623-3.601-.623-1.324 0-2.525.202-3.602.606-1.077.404-2.002.982-2.776 1.733-.774.752-1.374 1.666-1.8 2.743-.427 1.077-.64 2.277-.64 3.601 0 1.346.213 2.558.64 3.635.426 1.077 1.026 1.991 1.8 2.743.774.752 1.7 1.33 2.776 1.733 1.077.404 2.278.606 3.602.606zm.033-4.476c-.942 0-1.677-.365-2.204-1.094-.528-.73-.791-1.778-.791-3.147 0-1.346.258-2.384.774-3.113.516-.73 1.245-1.094 2.188-1.094.942 0 1.671.365 2.187 1.094.516.73.774 1.767.774 3.113s-.252 2.39-.757 3.13c-.505.74-1.228 1.11-2.17 1.11zM28.6 86.89c.15 0 .305-.008.466-.027.16-.019.312-.041.454-.067.142-.027.27-.057.381-.09.113-.034.199-.07.258-.107l-.145-.875c-.128.06-.303.116-.528.168-.224.053-.475.079-.751.079-.344 0-.636-.05-.875-.151-.24-.101-.436-.245-.59-.432-.153-.187-.265-.412-.336-.673-.071-.262-.107-.55-.107-.864 0-.703.156-1.238.466-1.605.31-.366.757-.55 1.34-.55.233 0 .451.023.657.068.206.045.387.105.544.18l.236-.887c-.24-.097-.49-.168-.752-.213-.262-.045-.524-.067-.785-.067-.427 0-.814.077-1.161.23-.348.153-.642.366-.881.64-.24.272-.425.596-.555.97-.131.374-.197.785-.197 1.234 0 .448.06.858.18 1.228s.3.69.544.96c.243.269.542.478.897.628.356.15.769.224 1.24.224zm3.25-7.022c.187 0 .345-.062.476-.185s.197-.29.197-.5c0-.209-.066-.375-.197-.498-.13-.124-.29-.186-.476-.186-.187 0-.346.062-.477.186-.131.123-.197.29-.197.499 0 .21.066.376.197.499.13.123.29.185.477.185zm.527 6.888v-5.833h-1.043v5.833h1.043zm2.7 0c.022-.65.052-1.344.09-2.08.037-.737.093-1.476.168-2.216.12.217.258.488.415.813.157.325.312.658.465.998l.438.97c.138.307.249.554.33.741h.876c.075-.18.18-.422.314-.729.135-.307.279-.628.432-.965.153-.336.308-.667.466-.993.157-.325.295-.604.415-.835.074.74.13 1.479.168 2.215.037.737.067 1.43.09 2.081h1.032c-.015-.456-.038-.933-.068-1.43-.03-.497-.063-.998-.1-1.503-.038-.505-.08-1.003-.124-1.492-.045-.49-.093-.96-.146-1.408h-.965c-.239.389-.52.921-.841 1.598l-1.11 2.34-1.111-2.34c-.322-.677-.602-1.21-.842-1.598h-.953c-.053.448-.101.918-.146 1.408-.045.49-.086.987-.123 1.492-.038.505-.071 1.006-.101 1.503-.03.497-.053.974-.068 1.43h.999zm10.014.135c.404 0 .765-.037 1.083-.112.317-.075.54-.146.667-.213l-.146-.875c-.127.06-.316.121-.566.185-.25.063-.56.095-.926.095-.65 0-1.13-.157-1.436-.471-.306-.314-.482-.774-.527-1.38h3.994c.007-.06.011-.125.011-.196v-.174c0-1.002-.21-1.748-.628-2.238-.42-.49-1.021-.735-1.806-.735-.337 0-.666.063-.988.19-.321.128-.605.318-.852.573-.247.254-.445.574-.595.959-.15.385-.224.836-.224 1.352 0 .441.058.847.174 1.217.116.37.293.69.533.96.239.268.544.48.914.633.37.153.81.23 1.318.23zm1.066-3.612h-2.895c.023-.202.07-.4.14-.595.072-.194.17-.366.298-.516.127-.15.282-.271.466-.365.183-.093.394-.14.633-.14.427 0 .761.152 1.004.454.243.303.361.69.354 1.162zm5.1-3.299c.472 0 .853-.12 1.145-.359.291-.239.467-.572.527-.998l-.785-.213c-.06.24-.161.434-.303.583-.142.15-.337.224-.584.224-.246 0-.44-.074-.583-.224-.142-.15-.243-.344-.303-.583l-.796.213c.06.426.237.759.533.998.295.24.678.36 1.15.36zm-1.525 6.776c.18-.306.392-.658.64-1.054.246-.397.504-.799.773-1.206.27-.408.539-.802.808-1.184.27-.381.516-.714.74-.998v4.442h1.01v-5.833h-.92c-.232.254-.48.555-.746.903-.265.348-.53.71-.796 1.088-.266.378-.522.76-.769 1.144-.247.385-.467.739-.662 1.06v-4.195H48.8v5.833h.932zm6.862 0v-2.58h2.692v2.58h1.043v-5.833h-1.043V83.3h-2.692v-2.378H55.55v5.833h1.044zm7.434.124c.232 0 .465-.01.7-.028.236-.019.455-.04.657-.062s.383-.047.544-.073l.376-.062V83.01c0-.329-.037-.63-.112-.903-.075-.273-.2-.508-.376-.707-.176-.198-.408-.351-.695-.46-.288-.108-.642-.162-1.06-.162-.367 0-.707.028-1.022.084-.314.056-.538.114-.673.174l.124.864c.127-.053.32-.103.578-.152.258-.048.559-.073.903-.073.269 0 .488.04.656.118.168.079.3.183.398.314.097.131.165.28.202.449.037.168.056.338.056.51v.292c-.03-.007-.082-.019-.157-.034l-.264-.05c-.1-.019-.207-.034-.32-.045-.111-.011-.22-.017-.325-.017-.329 0-.643.034-.942.101-.3.068-.56.172-.785.314-.225.142-.402.33-.533.561-.131.232-.196.509-.196.83 0 .337.056.625.168.864.112.24.27.432.471.578.202.146.441.252.718.32.277.067.58.1.909.1zm.123-.875c-.411 0-.737-.073-.976-.22-.24-.145-.359-.405-.359-.779 0-.202.049-.364.146-.488.097-.123.219-.22.365-.291.145-.072.306-.118.482-.14.176-.023.342-.034.5-.034.239 0 .442.013.61.039.169.026.29.058.365.095v1.74c-.127.03-.286.05-.477.06-.19.012-.41.018-.656.018zm7.621.751v-4.958h2.603v4.958h1.043v-5.833h-4.69v5.833h1.044zm6.01-6.888c.186 0 .345-.062.476-.185s.197-.29.197-.5c0-.209-.066-.375-.197-.498-.13-.124-.29-.186-.477-.186s-.345.062-.476.186c-.131.123-.197.29-.197.499 0 .21.066.376.197.499.13.123.29.185.476.185zm.527 6.888v-5.833h-1.044v5.833h1.044zm7.288 1.627v-2.49h-.785v-4.97h-1.044v4.97H81.2v-4.97h-1.043v5.833h4.454v1.627h.987zm3.8-1.492c.403 0 .764-.037 1.082-.112.318-.075.54-.146.667-.213L91 85.69c-.127.06-.316.121-.566.185-.25.063-.56.095-.926.095-.65 0-1.129-.157-1.436-.471-.306-.314-.482-.774-.527-1.38h3.994c.007-.06.011-.125.011-.196v-.174c0-1.002-.21-1.748-.628-2.238-.419-.49-1.02-.735-1.806-.735-.337 0-.666.063-.987.19-.322.128-.606.318-.853.573-.247.254-.445.574-.595.959-.15.385-.224.836-.224 1.352 0 .441.058.847.174 1.217.116.37.293.69.533.96.24.268.544.48.914.633.37.153.81.23 1.318.23zm1.065-3.612h-2.894c.022-.202.069-.4.14-.595.07-.194.17-.366.297-.516.127-.15.282-.271.466-.365.183-.093.394-.14.634-.14.426 0 .76.152 1.004.454.243.303.36.69.353 1.162zm3.687 5.553v-2.334c.127.083.32.169.578.258.258.09.555.135.892.135.419 0 .79-.075 1.116-.224.325-.15.6-.36.824-.629.225-.269.395-.59.51-.964.117-.374.175-.782.175-1.223 0-.471-.07-.896-.208-1.274-.138-.377-.334-.697-.589-.959-.254-.262-.56-.463-.92-.606-.359-.142-.762-.213-1.211-.213-.486 0-.915.036-1.285.107-.37.07-.678.136-.925.196v7.73h1.043zm1.335-2.861c-.284 0-.546-.049-.785-.146-.24-.097-.423-.198-.55-.303v-3.68c.105-.03.245-.055.42-.078.177-.022.421-.034.736-.034.56 0 1.01.184 1.346.55.336.367.505.89.505 1.57 0 .3-.03.578-.09.836-.06.259-.157.483-.292.674-.134.19-.308.34-.521.448-.214.109-.47.163-.769.163zm4.798-6.103c.187 0 .346-.062.477-.185.13-.123.196-.29.196-.5 0-.209-.066-.375-.196-.498-.131-.124-.29-.186-.477-.186s-.346.062-.477.186c-.13.123-.196.29-.196.499 0 .21.065.376.196.499.13.123.29.185.477.185zm.527 6.888v-5.833h-1.043v5.833h1.043zm2.352 0c.172-.351.369-.73.59-1.138.22-.408.45-.791.69-1.15.096.007.197.013.302.017.105.003.213.005.325.005h.909v2.266h1.032v-5.755c-.232-.06-.52-.112-.864-.157s-.763-.067-1.256-.067c-.352 0-.675.041-.97.123-.296.083-.552.204-.769.365-.217.16-.387.364-.51.611-.124.247-.186.535-.186.864 0 .157.017.312.05.466.035.153.093.297.175.432.082.134.19.256.325.364.135.109.307.2.516.275-.112.157-.232.333-.359.527-.127.195-.252.4-.376.617-.123.217-.245.44-.364.668-.12.228-.225.45-.314.667h1.054zm2.816-3.04h-1.043c-.427 0-.774-.071-1.044-.213-.269-.142-.403-.4-.403-.774 0-.382.13-.66.392-.836.262-.176.606-.264 1.032-.264.247 0 .466.008.657.023.19.015.327.03.409.045v2.02z"/>
    </g>
</svg>
