<svg xmlns="http://www.w3.org/2000/svg" width="26" height="23" viewBox="0 0 26 23">
    <path fill="#FFF" d="M.07 16.965c.561-2.247 1.584-3.483 2.703-4.132-.304-.388-.487-.877-.487-1.408 0-.267.047-.523.131-.761h-.13C1.026 10.664 0 9.638 0 8.379V2.285C.001 1.025 1.026 0 2.286 0H8.38c1.26 0 2.285 1.025 2.285 2.285V8.38c0 .297-.058.58-.162.842.97.264 1.685 1.152 1.685 2.204v1.524c0 .21-.085.4-.223.538-1.311 1.311-1.378 3.401-.204 4.794h3.575V9.902c0-.857.285-1.648.764-2.285h-1.525c-.421 0-.762-.341-.762-.762 0-.42.341-.761.762-.761h2.285v-.762c0-1.26 1.025-2.285 2.285-2.285h1.523c.42 0 .762.34.762.762v3.046c0 .42-.341.762-.762.762h-.496l1.408 4.648C24.087 12.7 26 14.89 26 17.52v1.523c0 2.14-1.741 3.81-3.803 3.81-1.842 0-3.385-1.16-3.742-3.048h-7.867c-.354 1.736-1.892 3.047-3.732 3.047-1.839 0-3.378-1.31-3.732-3.047h-.838C.8 19.804-.29 18.408.07 16.964zM19.906 4.57h-.762c-.42 0-.762.342-.762.762v.761h1.524V4.57zm1.123 16.476c1.762.856 3.447-.38 3.447-2.004 0-1.26-1.025-2.285-2.285-2.285-1.26 0-2.285 1.025-2.285 2.285 0 .886.44 1.673 1.123 2.004zm-4.17-2.766h1.6c.354-1.736 1.892-3.046 3.732-3.046.659 0 1.28.168 1.82.464-.646-1.183-1.903-1.988-3.344-1.988-2.1 0-3.808 1.709-3.808 3.809v.761zm0-4.489c.816-.834 1.904-1.402 3.118-1.56L18.6 7.684c-.998.245-1.74 1.147-1.74 2.219v3.89zM9.14 2.285c0-.42-.341-.762-.761-.762H2.286c-.42 0-.761.342-.761.762v.762H9.14v-.762zm0 2.285H1.525V8.38c0 .42.341.761.761.761H8.38c.42 0 .761-.341.761-.761V4.57zm1.524 7.617v-.762c0-.42-.342-.761-.762-.761H4.571c-.42 0-.761.341-.761.761s.341.762.761.762H10.665zm-3.809 9.14c.993 0 1.84-.647 2.154-1.533H4.702c.315.886 1.161 1.533 2.154 1.533zm-4.57-3.047h7.66c-.721-1.432-.72-3.137 0-4.57H5.322c-1.93 0-3.164 1.186-3.774 3.624-.12.48.243.946.74.946z"/>
</svg>
